<svg xmlns="http://www.w3.org/2000/svg" xmlns:xlink="http://www.w3.org/1999/xlink" width="75" height="72" viewBox="0 0 75 72">
  <defs>
    <clipPath id="clip-path">
      <rect id="Rectangle_30" data-name="Rectangle 30" width="75" height="72" fill="none" stroke="#5f249f" stroke-width="2"/>
    </clipPath>
  </defs>
  <g id="Group_10" data-name="Group 10" transform="translate(0.466)">
    <g id="Group_9" data-name="Group 9" transform="translate(-0.466)" clip-path="url(#clip-path)">
      <path id="Path_409" data-name="Path 409" d="M37.664,58.677a3.822,3.822,0,0,1,1.1-3.371C40.1,53.974,49.674,42.812,51.018,41.48c1.219-1.209,1.2-14.52,1.1-16.313-.1-1.723-.385-10.784-1.741-14.137-1.493-.218-3.925.78-5.484,3.262-1.489,2.37-1.238,4.882,0,8.7l-2.419,7.575" transform="translate(21.426 5.918)" fill="none" stroke="#5f249f" stroke-linejoin="round" stroke-width="2"/>
      <path id="Path_410" data-name="Path 410" d="M41.887,37.751s6.128-6.212,7.225-7.3c4.388-4.349-1.1-9.789-5.486-5.437-1.1,1.087-1.193,1.321-4.245,4.346-.914.906-2.175.428-3.624,1.864-.644.64-4.08,3.97-5.564,5.44S28,41.153,28,43.191V52" transform="translate(16.106 12.597)" fill="none" stroke="#5f249f" stroke-linejoin="round" stroke-width="2"/>
      <path id="Path_411" data-name="Path 411" d="M47.721,49.69V42H26v7.69" transform="translate(15.003 22.595)" fill="none" stroke="#5f249f" stroke-linejoin="round" stroke-width="2"/>
      <line id="Line_2" data-name="Line 2" x2="4" transform="translate(45 68)" fill="none" stroke="#5f249f" stroke-linejoin="round" stroke-width="2"/>
      <path id="Path_412" data-name="Path 412" d="M15.494,58.677a3.822,3.822,0,0,0-1.1-3.371C13.053,53.974,3.484,42.812,2.14,41.48c-1.219-1.209-1.2-14.52-1.1-16.313.1-1.723.383-10.784,1.741-14.137,1.493-.218,3.924.78,5.484,3.262,1.489,2.37,1.237,4.882,0,8.7l2.419,7.575" transform="translate(1.216 5.918)" fill="none" stroke="#5f249f" stroke-linejoin="round" stroke-width="2"/>
      <path id="Path_413" data-name="Path 413" d="M14.191,37.751s-6.128-6.212-7.225-7.3c-4.388-4.349,1.1-9.789,5.486-5.437,1.1,1.087,1.193,1.321,4.245,4.346.914.906,2.175.428,3.624,1.864.644.64,4.08,3.97,5.564,5.44S28,41.153,28.078,43.191V52" transform="translate(3.617 12.597)" fill="none" stroke="#5f249f" stroke-linejoin="round" stroke-width="2"/>
      <path id="Path_414" data-name="Path 414" d="M8,49.69V42H29.721v7.69" transform="translate(5.077 22.595)" fill="none" stroke="#5f249f" stroke-linejoin="round" stroke-width="2"/>
      <line id="Line_3" data-name="Line 3" x1="4" transform="translate(26 68)" fill="none" stroke="#5f249f" stroke-linejoin="round" stroke-width="2"/>
      <path id="Path_415" data-name="Path 415" d="M25.127,34.706c-6.133-2.269-9.146-9.882-8.164-13.936C19.593,9.922,30,8.888,34.439,1,41.158,5.875,43.7,15.872,40.69,24.853c-2.028,6.046-7.759,8.062-10.825,8.727" transform="translate(9.919 0.538)" fill="none" stroke="#5f249f" stroke-linejoin="round" stroke-width="2"/>
      <path id="Path_416" data-name="Path 416" d="M23.7,40.137C19.083,26.9,25.936,16.849,29.824,8.21" transform="translate(12.885 4.417)" fill="none" stroke="#5f249f" stroke-linejoin="round" stroke-width="2"/>
    </g>
  </g>
</svg>
