<svg id="bg" xmlns="http://www.w3.org/2000/svg" xmlns:xlink="http://www.w3.org/1999/xlink" width="600" height="600" viewBox="0 0 600 600">
  <defs>
    <clipPath id="clip-path">
      <rect id="Rectangle_56" data-name="Rectangle 56" width="600" height="599.999" transform="translate(33.87 26.305)" fill="#6cc24a"/>
    </clipPath>
  </defs>
  <rect id="Rectangle_64" data-name="Rectangle 64" width="600" height="600" transform="translate(0)" fill="#fff"/>
  <g id="Group_20" data-name="Group 20" transform="translate(-33.87 -26.305)" opacity="0.133">
    <g id="Group_19" data-name="Group 19" clip-path="url(#clip-path)">
      <path id="Path_423" data-name="Path 423" d="M202.253,210.3H202.2a55.654,55.654,0,1,1,.052,0m.047-108.277A52.63,52.63,0,0,0,165,191.839a51.842,51.842,0,0,0,37.009,15.448l-.142,1.5v-1.5a52.63,52.63,0,0,0,.43-105.259" fill="#6cc24a"/>
      <path id="Path_424" data-name="Path 424" d="M201.766,260.3h0a1.49,1.49,0,0,1-1.5-1.49l.1-107.008a1.5,1.5,0,0,1,1.5-1.5h0a1.507,1.507,0,0,1,1.5,1.511l-.1,107a1.5,1.5,0,0,1-1.5,1.492" fill="#6cc24a"/>
      <path id="Path_425" data-name="Path 425" d="M202.565,186.826a1.5,1.5,0,0,1-.952-2.66l15.637-12.82a1.5,1.5,0,0,1,1.9,2.32l-15.637,12.82a1.491,1.491,0,0,1-.95.34" fill="#6cc24a"/>
      <path id="Path_426" data-name="Path 426" d="M705.386,751.839h0l-92.4-.084a1.5,1.5,0,0,1-1.432-1.946l46.338-148.754A1.5,1.5,0,0,1,659.321,600h0a1.5,1.5,0,0,1,1.431,1.057L706.819,749.9a1.5,1.5,0,0,1-1.433,1.943m-90.365-3.082,88.33.08L659.316,606.56Z" fill="#6cc24a"/>
      <path id="Path_427" data-name="Path 427" d="M705.386,151.839h0l-92.4-.085a1.5,1.5,0,0,1-1.432-1.946L657.888,1.054A1.5,1.5,0,0,1,659.321,0h0a1.5,1.5,0,0,1,1.431,1.057L706.819,149.9a1.5,1.5,0,0,1-1.433,1.944m-90.365-3.083,88.33.081L659.316,6.559Z" fill="#6cc24a"/>
      <path id="Path_428" data-name="Path 428" d="M105.386,751.839h0l-92.4-.084a1.5,1.5,0,0,1-1.431-1.946L57.889,601.055A1.5,1.5,0,0,1,59.321,600h0a1.5,1.5,0,0,1,1.431,1.057L106.819,749.9a1.5,1.5,0,0,1-1.433,1.943m-90.365-3.082,88.33.08L59.317,606.56Z" fill="#6cc24a"/>
      <path id="Path_429" data-name="Path 429" d="M105.386,151.839h0l-92.4-.085a1.5,1.5,0,0,1-1.431-1.946L57.889,1.054A1.5,1.5,0,0,1,59.321,0h0a1.5,1.5,0,0,1,1.431,1.057L106.819,149.9a1.5,1.5,0,0,1-1.433,1.944m-90.365-3.083,88.33.081L59.317,6.559Z" fill="#6cc24a"/>
      <path id="Path_430" data-name="Path 430" d="M59.04,175.328h0a1.5,1.5,0,0,1-1.5-1.5l.1-108.836a1.5,1.5,0,0,1,1.5-1.5h0a1.5,1.5,0,0,1,1.5,1.5l-.1,108.835a1.5,1.5,0,0,1-1.5,1.5" fill="#6cc24a"/>
      <path id="Path_431" data-name="Path 431" d="M60.079,118.3a1.5,1.5,0,0,1-1.014-2.6l12.1-11.1A1.5,1.5,0,0,1,73.2,106.8l-12.1,11.1a1.5,1.5,0,0,1-1.014.394" fill="#6cc24a"/>
      <path id="Path_432" data-name="Path 432" d="M59.118,96.4a1.5,1.5,0,0,1-1.1-.483L48.056,85.12a1.5,1.5,0,1,1,2.206-2.034L60.22,93.881a1.5,1.5,0,0,1-1.1,2.517" fill="#6cc24a"/>
      <path id="Path_433" data-name="Path 433" d="M510.784,723.676h-.052a56.433,56.433,0,1,1,.052,0m.049-109.814a53.407,53.407,0,1,0-.1,106.814l.05,1.5v-1.5a53.407,53.407,0,0,0,.049-106.814" fill="#6cc24a"/>
      <path id="Path_434" data-name="Path 434" d="M510.785,123.677h-.053a56.408,56.408,0,0,1,.05-112.815,56.408,56.408,0,0,1,0,112.815m.048-109.815a53.408,53.408,0,1,0-.1,106.815l.051,1.5v-1.5a53.408,53.408,0,0,0,.048-106.815" fill="#6cc24a"/>
      <path id="Path_435" data-name="Path 435" d="M510.054,164.079h0a1.5,1.5,0,0,1-1.5-1.5l.053-111.044a1.5,1.5,0,0,1,1.5-1.5h0a1.5,1.5,0,0,1,1.5,1.5l-.053,111.043a1.5,1.5,0,0,1-1.5,1.5" fill="#6cc24a"/>
      <path id="Path_436" data-name="Path 436" d="M415.434,550.783h0l-100.224-.092a1.5,1.5,0,0,1-1.421-1.978l50.26-149.35a1.538,1.538,0,0,1,1.422-1.059h0a1.535,1.535,0,0,1,1.421,1.062l49.964,149.422a1.523,1.523,0,0,1-.206,1.362,1.507,1.507,0,0,1-1.217.633m-98.137-3.09,96.053.088L365.465,404.6Z" fill="#6cc24a"/>
      <path id="Path_437" data-name="Path 437" d="M365.165,573.3h0a1.349,1.349,0,0,1-1.5-1.313l.114-115.329a1.387,1.387,0,0,1,1.5-1.358h0a1.461,1.461,0,0,1,1.5,1.456l-.114,115.258a1.334,1.334,0,0,1-1.5,1.286" fill="#6cc24a"/>
      <path id="Path_438" data-name="Path 438" d="M360.2,533.654a1.5,1.5,0,0,1-1.154-.541l-9.929-11.949a1.5,1.5,0,1,1,2.307-1.918l9.928,11.949a1.5,1.5,0,0,1-1.152,2.459" fill="#6cc24a"/>
      <path id="Path_439" data-name="Path 439" d="M365.233,505.214a1.5,1.5,0,0,1-1.105-2.515l11.1-12.084a1.5,1.5,0,1,1,2.209,2.03l-11.1,12.084a1.493,1.493,0,0,1-1.1.485" fill="#6cc24a"/>
      <path id="Path_440" data-name="Path 440" d="M364.231,480.4a1.5,1.5,0,0,1-1.259-.683l-6.206-9.552a1.5,1.5,0,1,1,2.516-1.635l6.206,9.553a1.5,1.5,0,0,1-1.257,2.317" fill="#6cc24a"/>
      <path id="Path_441" data-name="Path 441" d="M685.309,327.834h0l-64.664-.06a1.5,1.5,0,0,1-1.431-1.946l32.428-104.1a1.5,1.5,0,0,1,1.432-1.054h0a1.5,1.5,0,0,1,1.431,1.057L686.742,325.89a1.5,1.5,0,0,1-1.433,1.944m-62.626-3.058,60.591.055-30.206-97.6Z" fill="#6cc24a"/>
      <path id="Path_442" data-name="Path 442" d="M85.309,327.834h0l-64.663-.06a1.5,1.5,0,0,1-1.431-1.946L51.64,221.73a1.5,1.5,0,0,1,1.433-1.054h0a1.5,1.5,0,0,1,1.432,1.057L86.742,325.89a1.5,1.5,0,0,1-1.433,1.944m-62.626-3.058,60.591.055-30.206-97.6Z" fill="#6cc24a"/>
      <path id="Path_443" data-name="Path 443" d="M52.875,344.271h0a1.5,1.5,0,0,1-1.5-1.5l.07-72.747a1.5,1.5,0,0,1,1.5-1.5h0a1.5,1.5,0,0,1,1.5,1.5l-.07,72.746a1.5,1.5,0,0,1-1.5,1.5" fill="#6cc24a"/>
      <path id="Path_444" data-name="Path 444" d="M576.694,563.469h0l-74.746-.068a1.5,1.5,0,0,1-1.432-1.946L538,441.126a1.5,1.5,0,0,1,1.432-1.054h0a1.5,1.5,0,0,1,1.432,1.057l37.263,120.4a1.5,1.5,0,0,1-1.433,1.943M503.986,560.4l70.673.064L539.426,446.631Z" fill="#6cc24a"/>
      <path id="Path_445" data-name="Path 445" d="M539.2,582.471h0a1.5,1.5,0,0,1-1.5-1.5l.081-84.089a1.5,1.5,0,0,1,1.5-1.5h0a1.5,1.5,0,0,1,1.5,1.5l-.081,84.089a1.5,1.5,0,0,1-1.5,1.5" fill="#6cc24a"/>
      <path id="Path_446" data-name="Path 446" d="M599.493,229.6h0l-59.983-.055a1.5,1.5,0,0,1-1.431-1.946l30.08-96.563a1.5,1.5,0,0,1,1.432-1.054h0a1.5,1.5,0,0,1,1.432,1.057l29.9,96.618a1.5,1.5,0,0,1-1.433,1.943m-57.945-3.053,55.91.051-27.873-90.057Z" fill="#6cc24a"/>
      <path id="Path_447" data-name="Path 447" d="M569.407,244.847h0a1.5,1.5,0,0,1-1.5-1.5l.065-67.481a1.5,1.5,0,0,1,1.5-1.5h0a1.5,1.5,0,0,1,1.5,1.5l-.065,67.481a1.5,1.5,0,0,1-1.5,1.5" fill="#6cc24a"/>
      <path id="Path_448" data-name="Path 448" d="M465.575,432.3a62.535,62.535,0,1,1,.057,0Zm0-121.853a59.565,59.565,0,1,0,.294,119.129v1.5l-.093-1.5a59.565,59.565,0,0,0-.2-119.129" fill="#6cc24a"/>
      <path id="Path_449" data-name="Path 449" d="M466.052,472.083a1.5,1.5,0,0,1-1.5-1.5l-.1-114.873a1.5,1.5,0,0,1,1.5-1.5h0a1.5,1.5,0,0,1,1.5,1.5l.1,114.873a1.5,1.5,0,0,1-1.5,1.5Z" fill="#6cc24a"/>
      <path id="Path_450" data-name="Path 450" d="M465.169,385.407a1.494,1.494,0,0,1-1.169-.56L453.015,371.2a1.5,1.5,0,0,1,2.336-1.881l10.985,13.643a1.5,1.5,0,0,1-1.167,2.44" fill="#6cc24a"/>
      <path id="Path_451" data-name="Path 451" d="M465.992,404.145a1.5,1.5,0,0,1-1.108-2.511l13.056-14.318a1.5,1.5,0,1,1,2.217,2.021L467.1,403.656a1.5,1.5,0,0,1-1.108.489" fill="#6cc24a"/>
      <path id="Path_452" data-name="Path 452" d="M659.621,509.673a59.6,59.6,0,1,1,.056,0Zm0-116.244a56.622,56.622,0,1,0,0,113.244v1.5l.054-1.5a56.622,56.622,0,0,0-.051-113.244" fill="#6cc24a"/>
      <path id="Path_453" data-name="Path 453" d="M59.621,509.673a59.6,59.6,0,1,1,.056,0Zm0-116.244a56.622,56.622,0,1,0,0,113.244v1.5l.053-1.5a56.622,56.622,0,0,0-.051-113.244" fill="#6cc24a"/>
      <path id="Path_454" data-name="Path 454" d="M60.145,563.4a1.5,1.5,0,0,1-1.5-1.5l-.106-114.9a1.5,1.5,0,0,1,1.5-1.5h0a1.5,1.5,0,0,1,1.5,1.5L61.645,561.9a1.5,1.5,0,0,1-1.5,1.5Z" fill="#6cc24a"/>
      <path id="Path_455" data-name="Path 455" d="M212.826,645.029a12.12,12.12,0,1,1,12.12-12.119,12.133,12.133,0,0,1-12.12,12.119m0-21.239a9.12,9.12,0,1,0,9.12,9.12,9.13,9.13,0,0,0-9.12-9.12" fill="#6cc24a"/>
      <path id="Path_456" data-name="Path 456" d="M212.37,615.8a1.5,1.5,0,0,1-1.5-1.5v-7a1.5,1.5,0,0,1,3,0v7a1.5,1.5,0,0,1-1.5,1.5" fill="#6cc24a"/>
      <path id="Path_457" data-name="Path 457" d="M199.639,621.874a1.5,1.5,0,0,1-1.061-.439l-5.563-5.563a1.5,1.5,0,1,1,2.122-2.121l5.563,5.562a1.5,1.5,0,0,1-1.061,2.561" fill="#6cc24a"/>
      <path id="Path_458" data-name="Path 458" d="M225.227,621.874a1.5,1.5,0,0,1-1.061-2.561l5.563-5.562a1.5,1.5,0,1,1,2.121,2.121l-5.562,5.563a1.5,1.5,0,0,1-1.061.439" fill="#6cc24a"/>
      <path id="Path_459" data-name="Path 459" d="M212.826,45.029a12.12,12.12,0,1,1,12.12-12.12,12.134,12.134,0,0,1-12.12,12.12m0-21.24a9.12,9.12,0,1,0,9.12,9.12,9.13,9.13,0,0,0-9.12-9.12" fill="#6cc24a"/>
      <path id="Path_460" data-name="Path 460" d="M212.37,59.805a1.5,1.5,0,0,1-1.5-1.5v-7a1.5,1.5,0,0,1,3,0v7a1.5,1.5,0,0,1-1.5,1.5" fill="#6cc24a"/>
      <path id="Path_461" data-name="Path 461" d="M194.87,34.305h-8a1.5,1.5,0,0,1,0-3h8a1.5,1.5,0,0,1,0,3" fill="#6cc24a"/>
      <path id="Path_462" data-name="Path 462" d="M238.87,34.305h-8a1.5,1.5,0,0,1,0-3h8a1.5,1.5,0,0,1,0,3" fill="#6cc24a"/>
      <path id="Path_463" data-name="Path 463" d="M230.79,53.024a1.494,1.494,0,0,1-1.061-.439l-5.562-5.563a1.5,1.5,0,0,1,2.12-2.121l5.563,5.563a1.5,1.5,0,0,1-1.06,2.56" fill="#6cc24a"/>
      <path id="Path_464" data-name="Path 464" d="M194.076,53.024a1.5,1.5,0,0,1-1.061-2.56l5.563-5.563a1.5,1.5,0,0,1,2.122,2.121l-5.563,5.563a1.5,1.5,0,0,1-1.061.439" fill="#6cc24a"/>
      <path id="Path_465" data-name="Path 465" d="M487.4,253.3H437.618a1.5,1.5,0,0,1-1.5-1.471c-.01-.581-.021-.8-.027-.938-.006-.119-.009-.19-.009-.314,0-5.843,4.708-10.779,10.281-10.779a10.178,10.178,0,0,1,3.8.735,14.66,14.66,0,0,1,28.291-.181l.063,0c.141.005.284.01.427.01a10.263,10.263,0,0,1,10,10.251c0,.116,0,.18-.008.285-.006.125-.017.331-.027.926a1.5,1.5,0,0,1-1.5,1.474m-48.318-3h46.846a7.218,7.218,0,0,0-6.992-6.936c-.177,0-.354-.006-.529-.012a4.748,4.748,0,0,0-.845.022,1.5,1.5,0,0,1-1.765-1.193,11.658,11.658,0,0,0-23.049.789,1.5,1.5,0,0,1-2.329,1.081,7.248,7.248,0,0,0-4.061-1.253c-3.792,0-7.129,3.475-7.276,7.5" fill="#6cc24a"/>
      <path id="Path_466" data-name="Path 466" d="M303.951,98.305H258.564c-1.671,0-1.671-1.846-1.671-3.329a10.115,10.115,0,0,1,10.041-10.165,9.851,9.851,0,0,1,1.277.085,13.745,13.745,0,0,1,26.557,1.764,9.516,9.516,0,0,1,1.771-.162,9.045,9.045,0,0,1,9,9.067c0,1.091,0,2.74-1.591,2.74m-44.053-3h42.639a6.039,6.039,0,0,0-6-5.807,5.945,5.945,0,0,0-2.436.489,1.5,1.5,0,0,1-2.108-1.295,10.745,10.745,0,0,0-21.24-1.729,1.5,1.5,0,0,1-1.881,1.13,7.077,7.077,0,0,0-8.981,6.883c0,.1,0,.216.005.329" fill="#6cc24a"/>
      <path id="Path_467" data-name="Path 467" d="M389.394,306.3H345.415a1.5,1.5,0,0,1-1.481-1.737,10.225,10.225,0,0,1,10.192-8.829,12.041,12.041,0,0,1,3.537.461,12.446,12.446,0,0,1,23.427-.326,10.368,10.368,0,0,1,1.307-.078,8.576,8.576,0,0,1,8.505,8.625c0,1.7-1.055,1.884-1.508,1.884m-42.017-3h40.411A5.627,5.627,0,0,0,382.4,298.8a5.412,5.412,0,0,0-1.829.259A1.5,1.5,0,0,1,378.614,298a9.445,9.445,0,0,0-18.467.538,1.5,1.5,0,0,1-2.249,1.019,7.72,7.72,0,0,0-10.521,3.747" fill="#6cc24a"/>
      <path id="Path_468" data-name="Path 468" d="M319.829,372.288h0l-84.581-.078a1.5,1.5,0,0,1-1.431-1.946L276.232,234.1a1.5,1.5,0,0,1,2.864,0l42.165,136.237a1.5,1.5,0,0,1-1.432,1.944m-82.543-3.076,80.507.074L277.659,239.608Z" fill="#6cc24a"/>
      <path id="Path_469" data-name="Path 469" d="M277.4,393.3h0c-.828,0-1.5-.431-1.5-1.26L276,321.808a1.5,1.5,0,0,1,1.5-1.5h0a1.612,1.612,0,0,1,1.5,1.627l-.093,70.054a1.358,1.358,0,0,1-1.5,1.319" fill="#6cc24a"/>
      <path id="Path_470" data-name="Path 470" d="M60.145,474.926a1.5,1.5,0,0,1-1.067-2.556l12.514-12.641a1.5,1.5,0,1,1,2.132,2.111L61.21,474.482a1.5,1.5,0,0,1-1.065.444" fill="#6cc24a"/>
      <path id="Path_471" data-name="Path 471" d="M113.62,252.014l-3.421-.067,2.988,1.91Z" fill="#6cc24a"/>
      <path id="Path_472" data-name="Path 472" d="M113.463,252.884l-3.422,1.825c.007,0,3.035.6,3.182.618a13.061,13.061,0,0,0,.24-2.443" fill="#6cc24a"/>
      <path id="Path_473" data-name="Path 473" d="M134.687,274.457c-5.44,0-10.829-2.484-15.272-7.063-4.648-4.791-7.511-11.137-7.122-15.789a9.453,9.453,0,0,1,4.807-7.238c2.217-1.227,5.979-2.115,11.316.634,1.75.9,3.451,1.816,5.2,2.795a1.5,1.5,0,1,1-1.465,2.619c-1.72-.963-3.392-1.861-5.11-2.747-3.291-1.695-6.226-1.93-8.488-.677a6.56,6.56,0,0,0-3.272,4.863c-.31,3.72,2.334,9.377,6.286,13.451,2.368,2.44,7.328,6.489,13.905,6.131,9.8-.521,13.984-11.512,15.426-16.74a28.939,28.939,0,0,1-5.224,1.412,1.5,1.5,0,1,1-.458-2.964,32.168,32.168,0,0,0,7.166-2.282,1.5,1.5,0,0,1,2.112,1.6,39.917,39.917,0,0,1-3.552,10.512c-3.647,7.155-8.941,11.116-15.311,11.455-.315.017-.631.025-.945.025" fill="#6cc24a"/>
      <path id="Path_474" data-name="Path 474" d="M133.709,263.409h0a9.287,9.287,0,0,1-1.622-.142,8.19,8.19,0,0,1-5.935-3.6,8.729,8.729,0,0,1-.713-6.556,1.623,1.623,0,0,1,.078-.2c1.182-2.48,3.583-4.046,7.339-4.785a34.362,34.362,0,0,1,3.868-.484c.625-.052,1.165-.1,1.477-.156a27.441,27.441,0,0,0,7.321-2.908,1.5,1.5,0,0,1,2.254,1.44c-.071.717-.745,7.083-2.553,10.015-1.573,2.551-6.005,7.375-11.513,7.375m-5.43-9.316a5.628,5.628,0,0,0,.443,4.03,5.387,5.387,0,0,0,3.884,2.19,6.366,6.366,0,0,0,1.1.1c4.318,0,8.008-4.406,8.96-5.95a19.709,19.709,0,0,0,1.733-5.936,25.416,25.416,0,0,1-5.644,1.911c-.465.088-1.048.137-1.786.2a31.928,31.928,0,0,0-3.538.437c-2.7.531-4.383,1.52-5.155,3.023" fill="#6cc24a"/>
      <path id="Path_475" data-name="Path 475" d="M169.548,381.3h-46.92a1.5,1.5,0,0,1-1.5-1.476c-.009-.576-.016-.681-.021-.74a2.073,2.073,0,0,1-.011-.26,9.6,9.6,0,0,1,9.509-9.676l.4,0a13.9,13.9,0,0,1,26.778.194,9.707,9.707,0,0,1,3.518-.659,10.078,10.078,0,0,1,9.776,10.106c0,.145,0,.19-.01.267s-.014.195-.025.775a1.5,1.5,0,0,1-1.5,1.472m-45.431-3h43.945a7.024,7.024,0,0,0-6.756-6.62,6.742,6.742,0,0,0-3.778,1.161,1.5,1.5,0,0,1-2.329-1.08,10.9,10.9,0,0,0-21.55-.763,1.5,1.5,0,0,1-1.768,1.193,3.733,3.733,0,0,0-.691-.047l-.585,0a6.677,6.677,0,0,0-6.488,6.152" fill="#6cc24a"/>
      <path id="Path_476" data-name="Path 476" d="M329.957,56.305H292.622a1.5,1.5,0,0,1-1.5-1.474c-.008-.443-.013-.524-.017-.569-.005-.063-.009.041-.009-.092a7.828,7.828,0,0,1,7.873-7.865h.094a11.163,11.163,0,0,1,10.853-8.148A11.287,11.287,0,0,1,320.8,46.151a8.077,8.077,0,0,1,2.6-.465,8.314,8.314,0,0,1,8.085,8.33c0,.129,0,.16-.008.229s-.011.146-.019.592a1.5,1.5,0,0,1-1.5,1.468m-35.808-3h34.29a5.261,5.261,0,0,0-5.04-4.655,5.056,5.056,0,0,0-2.835.872,1.5,1.5,0,0,1-2.329-1.08,8.368,8.368,0,0,0-16.542-.585,1.5,1.5,0,0,1-1.768,1.194,2.771,2.771,0,0,0-.495-.032l-.461,0a5,5,0,0,0-4.82,4.283" fill="#6cc24a"/>
      <path id="Path_477" data-name="Path 477" d="M332.383,607.3H286.827a1.5,1.5,0,0,1-1.481-1.739c.674-4.18,5.322-8.722,10.693-7.466a13.748,13.748,0,0,1,26.543-1.693,9.056,9.056,0,0,1,1.281-.092,10.237,10.237,0,0,1,10.018,9.412,1.5,1.5,0,0,1-1.5,1.578m-43.445-3H330.57a7.4,7.4,0,0,0-6.707-4.99,6.989,6.989,0,0,0-1.942.3,1.5,1.5,0,0,1-1.879-1.13,10.746,10.746,0,0,0-21.241,1.7,1.5,1.5,0,0,1-2.107,1.3,6,6,0,0,0-2.437-.6,6.479,6.479,0,0,0-5.319,3.416" fill="#6cc24a"/>
      <path id="Path_478" data-name="Path 478" d="M156.4,59.305H110.826a1.5,1.5,0,0,1-1.5-1.578,10.237,10.237,0,0,1,10.019-9.412,9.072,9.072,0,0,1,1.281.093A13.747,13.747,0,0,1,147.17,50.1c5.244-1.221,9.821,3.1,10.645,7.2a1.5,1.5,0,0,1-1.412,2.006m-43.763-3h41.632a6.484,6.484,0,0,0-5.32-3.416,6,6,0,0,0-2.436.594,1.5,1.5,0,0,1-2.108-1.3,10.746,10.746,0,0,0-21.241-1.7,1.5,1.5,0,0,1-1.88,1.13,7,7,0,0,0-1.94-.3,7.4,7.4,0,0,0-6.707,4.99" fill="#6cc24a"/>
      <path id="Path_479" data-name="Path 479" d="M563.826,326.03a12.12,12.12,0,1,1,12.12-12.12,12.134,12.134,0,0,1-12.12,12.12m0-21.241a9.12,9.12,0,1,0,9.12,9.121,9.13,9.13,0,0,0-9.12-9.121" fill="#6cc24a"/>
      <path id="Path_480" data-name="Path 480" d="M563.37,340.8a1.5,1.5,0,0,1-1.5-1.5v-7a1.5,1.5,0,0,1,3,0v7a1.5,1.5,0,0,1-1.5,1.5" fill="#6cc24a"/>
      <path id="Path_481" data-name="Path 481" d="M563.37,296.8a1.5,1.5,0,0,1-1.5-1.5v-7a1.5,1.5,0,0,1,3,0v7a1.5,1.5,0,0,1-1.5,1.5" fill="#6cc24a"/>
      <path id="Path_482" data-name="Path 482" d="M545.87,315.3h-8a1.5,1.5,0,0,1,0-3h8a1.5,1.5,0,0,1,0,3" fill="#6cc24a"/>
      <path id="Path_483" data-name="Path 483" d="M589.87,315.3h-8a1.5,1.5,0,0,1,0-3h8a1.5,1.5,0,0,1,0,3" fill="#6cc24a"/>
      <path id="Path_484" data-name="Path 484" d="M550.639,302.874a1.5,1.5,0,0,1-1.061-.439l-5.562-5.563a1.5,1.5,0,1,1,2.121-2.121l5.562,5.563a1.5,1.5,0,0,1-1.06,2.56" fill="#6cc24a"/>
      <path id="Path_485" data-name="Path 485" d="M581.789,334.024a1.5,1.5,0,0,1-1.06-.439l-5.563-5.563a1.5,1.5,0,0,1,2.121-2.121l5.563,5.562a1.5,1.5,0,0,1-1.061,2.561" fill="#6cc24a"/>
      <path id="Path_486" data-name="Path 486" d="M576.227,302.874a1.5,1.5,0,0,1-1.061-2.56l5.562-5.563a1.5,1.5,0,1,1,2.121,2.121l-5.562,5.563a1.5,1.5,0,0,1-1.06.439" fill="#6cc24a"/>
      <path id="Path_487" data-name="Path 487" d="M545.076,334.024a1.5,1.5,0,0,1-1.061-2.561l5.563-5.562a1.5,1.5,0,0,1,2.121,2.121l-5.563,5.563a1.5,1.5,0,0,1-1.06.439" fill="#6cc24a"/>
      <path id="Path_488" data-name="Path 488" d="M225.316,539.3h0l-60.678.147a1.365,1.365,0,0,1-1.431-1.794l30.428-97.491a1.348,1.348,0,0,1,1.433-.863h0a1.366,1.366,0,0,1,1.432.892l30.249,97.654a1.042,1.042,0,0,1-.226,1.09c-.283.382-.731.365-1.207.365m-58.64-2.648,56.605.052-28.219-91.177Z" fill="#6cc24a"/>
      <path id="Path_489" data-name="Path 489" d="M194.882,555.3h0a1.573,1.573,0,0,1-1.5-1.585l.066-68.09a1.362,1.362,0,0,1,1.5-1.325h0a1.33,1.33,0,0,1,1.5,1.285l-.066,68.239a1.481,1.481,0,0,1-1.5,1.476" fill="#6cc24a"/>
      <path id="Path_490" data-name="Path 490" d="M298.264,450.194l3.421-.067-2.987,1.91Z" fill="#6cc24a"/>
      <path id="Path_491" data-name="Path 491" d="M298.422,451.065l3.421,1.825c-.006,0-3.035.6-3.182.618a13.059,13.059,0,0,1-.239-2.443" fill="#6cc24a"/>
      <path id="Path_492" data-name="Path 492" d="M277.2,472.638c-.316,0-.631-.009-.947-.025-6.369-.339-11.664-4.3-15.311-11.455a39.915,39.915,0,0,1-3.552-10.512,1.5,1.5,0,0,1,2.112-1.6,32.108,32.108,0,0,0,7.166,2.282,1.5,1.5,0,1,1-.458,2.965,28.939,28.939,0,0,1-5.224-1.413c1.442,5.229,5.629,16.22,15.426,16.741,6.583.361,11.537-3.69,13.9-6.13,3.954-4.075,6.6-9.732,6.287-13.452a6.558,6.558,0,0,0-3.272-4.863c-2.262-1.252-5.2-1.017-8.487.677-1.708.879-3.379,1.777-5.111,2.747a1.5,1.5,0,1,1-1.465-2.618c1.763-.986,3.464-1.9,5.2-2.8,5.335-2.749,9.1-1.861,11.315-.634a9.456,9.456,0,0,1,4.808,7.237c.388,4.654-2.475,11-7.123,15.791-4.443,4.578-9.832,7.061-15.27,7.062" fill="#6cc24a"/>
      <path id="Path_493" data-name="Path 493" d="M278.177,461.59c-5.51,0-9.941-4.824-11.514-7.375-1.808-2.932-2.483-9.3-2.554-10.016a1.5,1.5,0,0,1,2.255-1.439,27.454,27.454,0,0,0,7.321,2.907c.311.059.851.1,1.475.156a34.616,34.616,0,0,1,3.869.484c3.757.74,6.157,2.3,7.339,4.785a1.634,1.634,0,0,1,.079.2,8.732,8.732,0,0,1-.713,6.557,8.2,8.2,0,0,1-5.935,3.6,9.385,9.385,0,0,1-1.622.142M267.483,446.7a19.7,19.7,0,0,0,1.733,5.937c.952,1.543,4.642,5.95,8.961,5.95a6.359,6.359,0,0,0,1.1-.1,5.366,5.366,0,0,0,3.893-2.206,5.629,5.629,0,0,0,.434-4.014c-.772-1.5-2.46-2.492-5.156-3.022a32.162,32.162,0,0,0-3.539-.439c-.738-.061-1.32-.11-1.785-.2a25.408,25.408,0,0,1-5.643-1.911" fill="#6cc24a"/>
      <path id="Path_494" data-name="Path 494" d="M148.951,598.3H103.564c-1.671,0-1.671-1.846-1.671-3.329a10.114,10.114,0,0,1,10.041-10.165,9.515,9.515,0,0,1,1.277.086,13.745,13.745,0,0,1,26.557,1.763,9.594,9.594,0,0,1,1.771-.162,9.046,9.046,0,0,1,9,9.067c0,1.091,0,2.74-1.591,2.74m-44.053-3h42.639a6.04,6.04,0,0,0-6-5.807,5.935,5.935,0,0,0-2.436.489,1.5,1.5,0,0,1-2.108-1.295,10.746,10.746,0,0,0-21.241-1.729,1.5,1.5,0,0,1-.694.973,1.515,1.515,0,0,1-1.185.157,7.068,7.068,0,0,0-8.982,6.883c0,.1,0,.216.005.329" fill="#6cc24a"/>
      <path id="Path_495" data-name="Path 495" d="M407.309,56.956l3.421-.067-2.987,1.91Z" fill="#6cc24a"/>
      <path id="Path_496" data-name="Path 496" d="M407.466,57.827l3.421,1.825c-.006,0-3.035.6-3.182.618a13.062,13.062,0,0,1-.239-2.443" fill="#6cc24a"/>
      <path id="Path_497" data-name="Path 497" d="M386.242,79.4c-.315,0-.631-.008-.945-.025-6.37-.339-11.665-4.3-15.312-11.456a39.925,39.925,0,0,1-3.551-10.511,1.5,1.5,0,0,1,2.112-1.6,32.315,32.315,0,0,0,7.167,2.282,1.5,1.5,0,1,1-.459,2.964,29.056,29.056,0,0,1-5.225-1.412c1.441,5.227,5.628,16.219,15.427,16.74,6.591.366,11.537-3.691,13.9-6.131,3.953-4.074,6.6-9.731,6.286-13.451a6.557,6.557,0,0,0-3.27-4.863c-2.263-1.253-5.2-1.019-8.489.677-1.716.885-3.388,1.783-5.111,2.747a1.5,1.5,0,0,1-1.465-2.619c1.753-.98,3.454-1.894,5.2-2.795,5.338-2.75,9.1-1.862,11.316-.634a9.455,9.455,0,0,1,4.808,7.238c.387,4.653-2.475,11-7.124,15.79-4.443,4.578-9.832,7.062-15.271,7.062" fill="#6cc24a"/>
      <path id="Path_498" data-name="Path 498" d="M387.219,68.351c-5.506,0-9.938-4.823-11.512-7.374-1.808-2.932-2.483-9.3-2.554-10.016a1.5,1.5,0,0,1,2.255-1.44,27.406,27.406,0,0,0,7.321,2.908c.312.059.851.1,1.476.156a34.151,34.151,0,0,1,3.869.484c3.756.74,6.157,2.305,7.339,4.786a1.712,1.712,0,0,1,.078.2,8.732,8.732,0,0,1-.713,6.557,8.193,8.193,0,0,1-5.936,3.6,9.388,9.388,0,0,1-1.623.142M376.527,53.465A19.7,19.7,0,0,0,378.26,59.4c.953,1.543,4.643,5.949,8.959,5.949a6.372,6.372,0,0,0,1.1-.1,5.373,5.373,0,0,0,3.894-2.207,5.633,5.633,0,0,0,.433-4.012c-.771-1.5-2.46-2.493-5.156-3.024a32.159,32.159,0,0,0-3.538-.438c-.738-.061-1.321-.109-1.785-.2a25.4,25.4,0,0,1-5.644-1.911" fill="#6cc24a"/>
      <path id="Path_499" data-name="Path 499" d="M474.957,535.3H437.622a1.5,1.5,0,0,1-1.5-1.475c-.008-.445-.013-.527-.017-.572-.005-.062-.009.043-.009-.088a7.828,7.828,0,0,1,7.873-7.865h.094a11.162,11.162,0,0,1,10.853-8.148,11.289,11.289,0,0,1,10.888,7.994,8.051,8.051,0,0,1,2.6-.466,8.315,8.315,0,0,1,8.086,8.331c0,.13,0,.161-.009.23s-.011.147-.019.593a1.5,1.5,0,0,1-1.5,1.466m-35.807-3h34.29a5.261,5.261,0,0,0-5.041-4.655,5.06,5.06,0,0,0-2.835.872,1.5,1.5,0,0,1-2.329-1.08,8.368,8.368,0,0,0-16.543-.584,1.5,1.5,0,0,1-1.765,1.193,2.838,2.838,0,0,0-.5-.032l-.457,0a5,5,0,0,0-4.819,4.283" fill="#6cc24a"/>
      <path id="Path_500" data-name="Path 500" d="M452.957,162.3H415.622a1.5,1.5,0,0,1-1.5-1.474c-.008-.445-.013-.528-.017-.573-.005-.062-.009.043-.009-.088a7.828,7.828,0,0,1,7.873-7.865h.094a11.163,11.163,0,0,1,10.853-8.148,11.287,11.287,0,0,1,10.888,7.994,8.076,8.076,0,0,1,2.6-.465,8.314,8.314,0,0,1,8.086,8.33c0,.13,0,.161-.009.231s-.011.146-.019.592a1.5,1.5,0,0,1-1.5,1.466m-35.808-3H451.44a5.263,5.263,0,0,0-5.041-4.655,5.056,5.056,0,0,0-2.835.872,1.5,1.5,0,0,1-2.329-1.08,8.368,8.368,0,0,0-16.543-.585,1.5,1.5,0,0,1-1.767,1.194,2.771,2.771,0,0,0-.495-.032l-.461,0a5,5,0,0,0-4.82,4.283" fill="#6cc24a"/>
      <path id="Path_501" data-name="Path 501" d="M626.957,597.3H589.622a1.5,1.5,0,0,1-1.5-1.475c-.008-.445-.013-.527-.017-.572-.005-.062-.009.043-.009-.088a7.829,7.829,0,0,1,7.873-7.865h.094a11.162,11.162,0,0,1,10.853-8.148,11.289,11.289,0,0,1,10.888,7.994,8.05,8.05,0,0,1,2.595-.466,8.315,8.315,0,0,1,8.086,8.331,2.3,2.3,0,0,1-.009.23c-.005.055-.011.147-.019.593a1.5,1.5,0,0,1-1.5,1.466m-35.807-3h34.29a5.261,5.261,0,0,0-5.041-4.655,5.06,5.06,0,0,0-2.835.872,1.5,1.5,0,0,1-2.329-1.08,8.368,8.368,0,0,0-16.543-.584,1.5,1.5,0,0,1-1.765,1.193,2.838,2.838,0,0,0-.5-.032l-.457,0a5,5,0,0,0-4.819,4.283" fill="#6cc24a"/>
      <path id="Path_502" data-name="Path 502" d="M604.95,390.3H559.563c-1.671,0-1.671-1.846-1.671-3.329a10.114,10.114,0,0,1,10.041-10.165,9.514,9.514,0,0,1,1.278.086,13.745,13.745,0,0,1,26.557,1.763,9.594,9.594,0,0,1,1.771-.162,9.046,9.046,0,0,1,9,9.067c0,1.091,0,2.74-1.592,2.74m-44.053-3h42.639a6.04,6.04,0,0,0-6-5.807,5.934,5.934,0,0,0-2.436.489,1.5,1.5,0,0,1-2.108-1.3,10.746,10.746,0,0,0-21.241-1.729,1.5,1.5,0,0,1-1.879,1.13,7.066,7.066,0,0,0-8.983,6.883c0,.1,0,.216,0,.329" fill="#6cc24a"/>
      <path id="Path_503" data-name="Path 503" d="M205.959,326.3H168.624a1.5,1.5,0,0,1-1.5-1.477c0-.32-.008-.481-.012-.564A1.931,1.931,0,0,1,167.1,324a8.33,8.33,0,0,1,8.085-8.348,8.021,8.021,0,0,1,2.595.43,11.371,11.371,0,0,1,21.741.225h.094a7.828,7.828,0,0,1,7.873,7.865,1.458,1.458,0,0,1-.325.913,1.532,1.532,0,0,0,.312-.819c0,.065-.008.2-.013.579a1.484,1.484,0,0,1-1.5,1.462m-35.818-3h34.29a5,5,0,0,0-4.819-4.283l-.457,0a2.836,2.836,0,0,0-.5.032,1.5,1.5,0,0,1-1.766-1.193,8.368,8.368,0,0,0-16.543.584,1.5,1.5,0,0,1-2.329,1.08,5.068,5.068,0,0,0-2.835-.872,5.262,5.262,0,0,0-5.041,4.655" fill="#6cc24a"/>
      <path id="Path_504" data-name="Path 504" d="M277.294,350.965a1.5,1.5,0,0,0,1.129-.513l8.117-9.279a1.5,1.5,0,0,0-2.258-1.975l-8.116,9.28a1.5,1.5,0,0,0,1.128,2.487" fill="#6cc24a"/>
      <path id="Path_505" data-name="Path 505" d="M314.54,229.3a1.732,1.732,0,0,1-1.433-2.171l38.5-124.59a1.681,1.681,0,0,1,1.432-1.239h0a1.641,1.641,0,0,1,1.432,1.2l38.732,124.408a1.58,1.58,0,0,1-.224,1.371,1.688,1.688,0,0,1-1.207.781l-77.235.241Zm38.509-121.152L316.575,226l73.163-.068Z" fill="#6cc24a"/>
      <path id="Path_506" data-name="Path 506" d="M353.279,248.3a1.368,1.368,0,0,1-1.5-1.334l-.088-91.067a1.585,1.585,0,0,1,1.5-1.6h0a1.664,1.664,0,0,1,1.5,1.678l.088,90.9a1.437,1.437,0,0,1-1.5,1.426Z" fill="#6cc24a"/>
      <path id="Path_507" data-name="Path 507" d="M352.412,200.965a1.5,1.5,0,0,1-1.129-.513l-8.117-9.279a1.5,1.5,0,0,1,2.258-1.975l8.116,9.28a1.5,1.5,0,0,1-1.128,2.487" fill="#6cc24a"/>
    </g>
  </g>
</svg>
