<svg id="Group_15" data-name="Group 15" xmlns="http://www.w3.org/2000/svg" xmlns:xlink="http://www.w3.org/1999/xlink" width="74.255" height="72.364" viewBox="0 0 74.255 72.364">
  <defs>
    <clipPath id="clip-path">
      <rect id="Rectangle_31" data-name="Rectangle 31" width="74.255" height="72.364" fill="none" stroke="#5f249f" stroke-width="2"/>
    </clipPath>
  </defs>
  <g id="Group_12" data-name="Group 12">
    <g id="Group_11" data-name="Group 11" clip-path="url(#clip-path)">
      <line id="Line_4" data-name="Line 4" y2="36.823" transform="translate(45.894 35.256)" fill="none" stroke="#5f249f" stroke-linejoin="round" stroke-width="2"/>
    </g>
  </g>
  <line id="Line_5" data-name="Line 5" x2="7" y2="7" transform="translate(39.507 46.708)" fill="none" stroke="#5f249f" stroke-linejoin="round" stroke-width="2"/>
  <line id="Line_6" data-name="Line 6" x1="8" y2="7" transform="translate(44.747 46.708)" fill="none" stroke="#5f249f" stroke-linejoin="round" stroke-width="2"/>
  <g id="Group_14" data-name="Group 14">
    <g id="Group_13" data-name="Group 13" clip-path="url(#clip-path)">
      <path id="Path_417" data-name="Path 417" d="M16.482,10S31.964,33.829,31.964,42.333A15.482,15.482,0,0,1,1,42.333C1,33.829,16.482,10,16.482,10Z" transform="translate(0.548 5.397)" fill="none" stroke="#5f249f" stroke-linejoin="round" stroke-width="2"/>
      <line id="Line_7" data-name="Line 7" y2="39" transform="translate(17 33)" fill="none" stroke="#5f249f" stroke-linejoin="round" stroke-width="2"/>
      <line id="Line_8" data-name="Line 8" x2="7.09" y2="7.051" transform="translate(9.654 46.225)" fill="none" stroke="#5f249f" stroke-linejoin="round" stroke-width="2"/>
      <line id="Line_9" data-name="Line 9" x1="6.302" y2="5.484" transform="translate(16.745 40.74)" fill="none" stroke="#5f249f" stroke-linejoin="round" stroke-width="2"/>
      <path id="Path_418" data-name="Path 418" d="M21,52.952H48.312a12.812,12.812,0,1,0,0-25.623c-.028,0-.054,0-.082,0C47.518,20.925,41.566,16,34.934,16a12.326,12.326,0,0,0-12.3,11.332" transform="translate(11.512 8.635)" fill="none" stroke="#5f249f" stroke-linejoin="round" stroke-width="2"/>
      <path id="Path_419" data-name="Path 419" d="M16.681,19.8C21.095,11.379,26.464,3.25,26.464,3.25s5.369,8.129,9.783,16.551" transform="translate(9.145 1.754)" fill="none" stroke="#5f249f" stroke-linejoin="round" stroke-width="2"/>
      <ellipse id="Ellipse_4" data-name="Ellipse 4" cx="7.09" cy="6.268" rx="7.09" ry="6.268" transform="translate(54.56 2.35)" fill="none" stroke="#5f249f" stroke-linejoin="round" stroke-width="2"/>
    </g>
  </g>
</svg>
